ISO-10303-21;
HEADER;
/* Generated by software containing ST-Developer
 * from STEP Tools, Inc. (www.steptools.com) 
 */
/* OPTION: using custom renumber hook */

FILE_DESCRIPTION(
/* description */ ('STEP AP242 Edition 2',
'CAx-IF Rec.Pracs.---Representation and Presentation of Product Manufa
cturing Information (PMI)---4.0---2014-10-13',
'CAx-IF Rec.Pracs.---3D Tessellated Geometry---0.4---2014-09-14','2;1',
'CAx-IF Rec.Pracs.---User Defined Attributes---1.5---2016-08-15'),
/* implementation_level */ '2;1');

FILE_NAME(
/* name */ 'Part Studio 5',
/* time_stamp */ '2026-08-13T17:43:13Z',
/* author */ (''),
/* organization */ (''),
/* preprocessor_version */ 'ST-DEVELOPER v20',
/* originating_system */ 'ONSHAPE BY PTC INC, 1.219',
/* authorisation */ '  ');

FILE_SCHEMA (('AP242_MANAGED_MODEL_BASED_3D_ENGINEERING_MIM_LF { 1 0 10303 442 3 1 4 }'));
ENDSEC;

DATA;
#10=ELLIPSE('',#854,0.00212132034355965,0.0015);
#11=ELLIPSE('',#855,0.00212132034355965,0.0015);
#12=ELLIPSE('',#857,0.00212132034355965,0.0015);
#13=ELLIPSE('',#859,0.00212132034355965,0.0015);
#14=ELLIPSE('',#877,0.00230393774086888,0.00162913);
#15=ELLIPSE('',#878,0.00230393774086888,0.00162913);
#16=ELLIPSE('',#880,0.00230393774086888,0.00162913);
#17=ELLIPSE('',#882,0.00230393774086888,0.00162913);
#18=ELLIPSE('',#884,0.00230393774086888,0.00162913);
#19=ELLIPSE('',#886,0.00230393774086888,0.00162913);
#20=ELLIPSE('',#888,0.00230393774086888,0.00162913);
#21=ELLIPSE('',#890,0.00230393774086888,0.00162913);
#22=ELLIPSE('',#892,0.00230393774086888,0.00162913);
#23=ELLIPSE('',#894,0.00230393774086888,0.00162913);
#24=ELLIPSE('',#896,0.00230393774086888,0.00162913);
#25=ELLIPSE('',#898,0.00230393774086888,0.00162913);
#26=TOROIDAL_SURFACE('',#845,0.00185,0.0015);
#27=SHAPE_REPRESENTATION_RELATIONSHIP('','',#813,#31);
#28=SHAPE_REPRESENTATION_RELATIONSHIP('','',#814,#32);
#29=SHAPE_REPRESENTATION_RELATIONSHIP('','',#815,#33);
#30=SHAPE_REPRESENTATION_RELATIONSHIP('','',#816,#34);
#31=ADVANCED_BREP_SHAPE_REPRESENTATION('',(#805),#1364);
#32=ADVANCED_BREP_SHAPE_REPRESENTATION('',(#806),#1365);
#33=ADVANCED_BREP_SHAPE_REPRESENTATION('',(#807),#1366);
#34=ADVANCED_BREP_SHAPE_REPRESENTATION('',(#808),#1367);
#35=DEGENERATE_TOROIDAL_SURFACE('',#830,0.00055,0.0015,.T.);
#36=DEGENERATE_TOROIDAL_SURFACE('',#837,0.00055,0.0015,.T.);
#37=PLANE('',#821);
#38=PLANE('',#825);
#39=PLANE('',#826);
#40=PLANE('',#829);
#41=PLANE('',#842);
#42=PLANE('',#844);
#43=PLANE('',#847);
#44=PLANE('',#848);
#45=PLANE('',#849);
#46=PLANE('',#850);
#47=PLANE('',#851);
#48=PLANE('',#852);
#49=PLANE('',#862);
#50=PLANE('',#863);
#51=PLANE('',#864);
#52=PLANE('',#865);
#53=PLANE('',#866);
#54=PLANE('',#867);
#55=PLANE('',#868);
#56=PLANE('',#869);
#57=PLANE('',#870);
#58=PLANE('',#871);
#59=PLANE('',#872);
#60=PLANE('',#873);
#61=PLANE('',#874);
#62=PLANE('',#875);
#63=CIRCLE('',#819,0.00205);
#64=CIRCLE('',#820,0.00205);
#65=CIRCLE('',#823,0.00205);
#66=CIRCLE('',#824,0.00205);
#67=CIRCLE('',#827,0.00055);
#68=CIRCLE('',#828,0.00055);
#69=CIRCLE('',#831,0.0015);
#70=CIRCLE('',#832,0.0015);
#71=CIRCLE('',#834,0.0015);
#72=CIRCLE('',#836,0.0015);
#73=CIRCLE('',#840,0.00335);
#74=CIRCLE('',#841,0.00335);
#75=CIRCLE('',#843,0.00185);
#76=ORIENTED_EDGE('',*,*,#282,.F.);
#77=ORIENTED_EDGE('',*,*,#283,.T.);
#78=ORIENTED_EDGE('',*,*,#284,.T.);
#79=ORIENTED_EDGE('',*,*,#285,.F.);
#80=ORIENTED_EDGE('',*,*,#286,.F.);
#81=ORIENTED_EDGE('',*,*,#287,.T.);
#82=ORIENTED_EDGE('',*,*,#282,.T.);
#83=ORIENTED_EDGE('',*,*,#288,.F.);
#84=ORIENTED_EDGE('',*,*,#289,.F.);
#85=ORIENTED_EDGE('',*,*,#290,.T.);
#86=ORIENTED_EDGE('',*,*,#286,.T.);
#87=ORIENTED_EDGE('',*,*,#291,.T.);
#88=ORIENTED_EDGE('',*,*,#284,.F.);
#89=ORIENTED_EDGE('',*,*,#292,.T.);
#90=ORIENTED_EDGE('',*,*,#289,.T.);
#91=ORIENTED_EDGE('',*,*,#293,.T.);
#92=ORIENTED_EDGE('',*,*,#294,.T.);
#93=ORIENTED_EDGE('',*,*,#295,.T.);
#94=ORIENTED_EDGE('',*,*,#296,.T.);
#95=ORIENTED_EDGE('',*,*,#297,.T.);
#96=ORIENTED_EDGE('',*,*,#285,.T.);
#97=ORIENTED_EDGE('',*,*,#293,.F.);
#98=ORIENTED_EDGE('',*,*,#291,.F.);
#99=ORIENTED_EDGE('',*,*,#288,.T.);
#100=ORIENTED_EDGE('',*,*,#298,.F.);
#101=ORIENTED_EDGE('',*,*,#283,.F.);
#102=ORIENTED_EDGE('',*,*,#299,.F.);
#103=ORIENTED_EDGE('',*,*,#297,.F.);
#104=ORIENTED_EDGE('',*,*,#299,.T.);
#105=ORIENTED_EDGE('',*,*,#287,.F.);
#106=ORIENTED_EDGE('',*,*,#300,.F.);
#107=ORIENTED_EDGE('',*,*,#294,.F.);
#108=ORIENTED_EDGE('',*,*,#298,.T.);
#109=ORIENTED_EDGE('',*,*,#296,.F.);
#110=ORIENTED_EDGE('',*,*,#301,.F.);
#111=ORIENTED_EDGE('',*,*,#292,.F.);
#112=ORIENTED_EDGE('',*,*,#300,.T.);
#113=ORIENTED_EDGE('',*,*,#290,.F.);
#114=ORIENTED_EDGE('',*,*,#301,.T.);
#115=ORIENTED_EDGE('',*,*,#295,.F.);
#116=ORIENTED_EDGE('',*,*,#302,.T.);
#117=ORIENTED_EDGE('',*,*,#303,.T.);
#118=ORIENTED_EDGE('',*,*,#304,.T.);
#119=ORIENTED_EDGE('',*,*,#303,.F.);
#120=ORIENTED_EDGE('',*,*,#302,.F.);
#121=ORIENTED_EDGE('',*,*,#304,.F.);
#122=ORIENTED_EDGE('',*,*,#305,.F.);
#123=ORIENTED_EDGE('',*,*,#306,.T.);
#124=ORIENTED_EDGE('',*,*,#307,.T.);
#125=ORIENTED_EDGE('',*,*,#308,.F.);
#126=ORIENTED_EDGE('',*,*,#309,.F.);
#127=ORIENTED_EDGE('',*,*,#310,.T.);
#128=ORIENTED_EDGE('',*,*,#305,.T.);
#129=ORIENTED_EDGE('',*,*,#311,.T.);
#130=ORIENTED_EDGE('',*,*,#312,.F.);
#131=ORIENTED_EDGE('',*,*,#313,.T.);
#132=ORIENTED_EDGE('',*,*,#309,.T.);
#133=ORIENTED_EDGE('',*,*,#314,.T.);
#134=ORIENTED_EDGE('',*,*,#307,.F.);
#135=ORIENTED_EDGE('',*,*,#315,.T.);
#136=ORIENTED_EDGE('',*,*,#312,.T.);
#137=ORIENTED_EDGE('',*,*,#316,.F.);
#138=ORIENTED_EDGE('',*,*,#317,.T.);
#139=ORIENTED_EDGE('',*,*,#318,.T.);
#140=ORIENTED_EDGE('',*,*,#319,.T.);
#141=ORIENTED_EDGE('',*,*,#320,.T.);
#142=ORIENTED_EDGE('',*,*,#308,.T.);
#143=ORIENTED_EDGE('',*,*,#316,.T.);
#144=ORIENTED_EDGE('',*,*,#314,.F.);
#145=ORIENTED_EDGE('',*,*,#311,.F.);
#146=ORIENTED_EDGE('',*,*,#321,.F.);
#147=ORIENTED_EDGE('',*,*,#315,.F.);
#148=ORIENTED_EDGE('',*,*,#322,.F.);
#149=ORIENTED_EDGE('',*,*,#320,.F.);
#150=ORIENTED_EDGE('',*,*,#322,.T.);
#151=ORIENTED_EDGE('',*,*,#306,.F.);
#152=ORIENTED_EDGE('',*,*,#323,.F.);
#153=ORIENTED_EDGE('',*,*,#317,.F.);
#154=ORIENTED_EDGE('',*,*,#321,.T.);
#155=ORIENTED_EDGE('',*,*,#319,.F.);
#156=ORIENTED_EDGE('',*,*,#324,.F.);
#157=ORIENTED_EDGE('',*,*,#313,.F.);
#158=ORIENTED_EDGE('',*,*,#323,.T.);
#159=ORIENTED_EDGE('',*,*,#310,.F.);
#160=ORIENTED_EDGE('',*,*,#324,.T.);
#161=ORIENTED_EDGE('',*,*,#318,.F.);
#162=ORIENTED_EDGE('',*,*,#325,.F.);
#163=ORIENTED_EDGE('',*,*,#326,.T.);
#164=ORIENTED_EDGE('',*,*,#327,.T.);
#165=ORIENTED_EDGE('',*,*,#328,.T.);
#166=ORIENTED_EDGE('',*,*,#329,.F.);
#167=ORIENTED_EDGE('',*,*,#330,.T.);
#168=ORIENTED_EDGE('',*,*,#325,.T.);
#169=ORIENTED_EDGE('',*,*,#331,.T.);
#170=ORIENTED_EDGE('',*,*,#332,.F.);
#171=ORIENTED_EDGE('',*,*,#333,.T.);
#172=ORIENTED_EDGE('',*,*,#329,.T.);
#173=ORIENTED_EDGE('',*,*,#334,.T.);
#174=ORIENTED_EDGE('',*,*,#335,.F.);
#175=ORIENTED_EDGE('',*,*,#336,.T.);
#176=ORIENTED_EDGE('',*,*,#332,.T.);
#177=ORIENTED_EDGE('',*,*,#337,.F.);
#178=ORIENTED_EDGE('',*,*,#338,.F.);
#179=ORIENTED_EDGE('',*,*,#339,.T.);
#180=ORIENTED_EDGE('',*,*,#335,.T.);
#181=ORIENTED_EDGE('',*,*,#340,.F.);
#182=ORIENTED_EDGE('',*,*,#341,.F.);
#183=ORIENTED_EDGE('',*,*,#342,.T.);
#184=ORIENTED_EDGE('',*,*,#338,.T.);
#185=ORIENTED_EDGE('',*,*,#343,.T.);
#186=ORIENTED_EDGE('',*,*,#344,.F.);
#187=ORIENTED_EDGE('',*,*,#345,.T.);
#188=ORIENTED_EDGE('',*,*,#341,.T.);
#189=ORIENTED_EDGE('',*,*,#346,.F.);
#190=ORIENTED_EDGE('',*,*,#347,.F.);
#191=ORIENTED_EDGE('',*,*,#348,.T.);
#192=ORIENTED_EDGE('',*,*,#344,.T.);
#193=ORIENTED_EDGE('',*,*,#349,.F.);
#194=ORIENTED_EDGE('',*,*,#350,.F.);
#195=ORIENTED_EDGE('',*,*,#351,.T.);
#196=ORIENTED_EDGE('',*,*,#347,.T.);
#197=ORIENTED_EDGE('',*,*,#352,.F.);
#198=ORIENTED_EDGE('',*,*,#353,.F.);
#199=ORIENTED_EDGE('',*,*,#354,.T.);
#200=ORIENTED_EDGE('',*,*,#350,.T.);
#201=ORIENTED_EDGE('',*,*,#355,.T.);
#202=ORIENTED_EDGE('',*,*,#356,.F.);
#203=ORIENTED_EDGE('',*,*,#357,.T.);
#204=ORIENTED_EDGE('',*,*,#353,.T.);
#205=ORIENTED_EDGE('',*,*,#358,.T.);
#206=ORIENTED_EDGE('',*,*,#327,.F.);
#207=ORIENTED_EDGE('',*,*,#359,.T.);
#208=ORIENTED_EDGE('',*,*,#356,.T.);
#209=ORIENTED_EDGE('',*,*,#360,.F.);
#210=ORIENTED_EDGE('',*,*,#361,.T.);
#211=ORIENTED_EDGE('',*,*,#362,.T.);
#212=ORIENTED_EDGE('',*,*,#363,.T.);
#213=ORIENTED_EDGE('',*,*,#364,.T.);
#214=ORIENTED_EDGE('',*,*,#365,.T.);
#215=ORIENTED_EDGE('',*,*,#366,.T.);
#216=ORIENTED_EDGE('',*,*,#367,.T.);
#217=ORIENTED_EDGE('',*,*,#368,.T.);
#218=ORIENTED_EDGE('',*,*,#369,.T.);
#219=ORIENTED_EDGE('',*,*,#370,.T.);
#220=ORIENTED_EDGE('',*,*,#371,.T.);
#221=ORIENTED_EDGE('',*,*,#372,.T.);
#222=ORIENTED_EDGE('',*,*,#328,.F.);
#223=ORIENTED_EDGE('',*,*,#360,.T.);
#224=ORIENTED_EDGE('',*,*,#358,.F.);
#225=ORIENTED_EDGE('',*,*,#355,.F.);
#226=ORIENTED_EDGE('',*,*,#352,.T.);
#227=ORIENTED_EDGE('',*,*,#349,.T.);
#228=ORIENTED_EDGE('',*,*,#346,.T.);
#229=ORIENTED_EDGE('',*,*,#343,.F.);
#230=ORIENTED_EDGE('',*,*,#340,.T.);
#231=ORIENTED_EDGE('',*,*,#337,.T.);
#232=ORIENTED_EDGE('',*,*,#334,.F.);
#233=ORIENTED_EDGE('',*,*,#331,.F.);
#234=ORIENTED_EDGE('',*,*,#373,.F.);
#235=ORIENTED_EDGE('',*,*,#361,.F.);
#236=ORIENTED_EDGE('',*,*,#374,.F.);
#237=ORIENTED_EDGE('',*,*,#330,.F.);
#238=ORIENTED_EDGE('',*,*,#374,.T.);
#239=ORIENTED_EDGE('',*,*,#372,.F.);
#240=ORIENTED_EDGE('',*,*,#375,.F.);
#241=ORIENTED_EDGE('',*,*,#326,.F.);
#242=ORIENTED_EDGE('',*,*,#373,.T.);
#243=ORIENTED_EDGE('',*,*,#333,.F.);
#244=ORIENTED_EDGE('',*,*,#376,.F.);
#245=ORIENTED_EDGE('',*,*,#362,.F.);
#246=ORIENTED_EDGE('',*,*,#375,.T.);
#247=ORIENTED_EDGE('',*,*,#371,.F.);
#248=ORIENTED_EDGE('',*,*,#377,.F.);
#249=ORIENTED_EDGE('',*,*,#359,.F.);
#250=ORIENTED_EDGE('',*,*,#376,.T.);
#251=ORIENTED_EDGE('',*,*,#336,.F.);
#252=ORIENTED_EDGE('',*,*,#378,.F.);
#253=ORIENTED_EDGE('',*,*,#363,.F.);
#254=ORIENTED_EDGE('',*,*,#377,.T.);
#255=ORIENTED_EDGE('',*,*,#370,.F.);
#256=ORIENTED_EDGE('',*,*,#379,.F.);
#257=ORIENTED_EDGE('',*,*,#357,.F.);
#258=ORIENTED_EDGE('',*,*,#378,.T.);
#259=ORIENTED_EDGE('',*,*,#339,.F.);
#260=ORIENTED_EDGE('',*,*,#380,.F.);
#261=ORIENTED_EDGE('',*,*,#364,.F.);
#262=ORIENTED_EDGE('',*,*,#379,.T.);
#263=ORIENTED_EDGE('',*,*,#369,.F.);
#264=ORIENTED_EDGE('',*,*,#381,.F.);
#265=ORIENTED_EDGE('',*,*,#354,.F.);
#266=ORIENTED_EDGE('',*,*,#380,.T.);
#267=ORIENTED_EDGE('',*,*,#342,.F.);
#268=ORIENTED_EDGE('',*,*,#382,.F.);
#269=ORIENTED_EDGE('',*,*,#365,.F.);
#270=ORIENTED_EDGE('',*,*,#381,.T.);
#271=ORIENTED_EDGE('',*,*,#368,.F.);
#272=ORIENTED_EDGE('',*,*,#383,.F.);
#273=ORIENTED_EDGE('',*,*,#351,.F.);
#274=ORIENTED_EDGE('',*,*,#382,.T.);
#275=ORIENTED_EDGE('',*,*,#345,.F.);
#276=ORIENTED_EDGE('',*,*,#384,.F.);
#277=ORIENTED_EDGE('',*,*,#366,.F.);
#278=ORIENTED_EDGE('',*,*,#383,.T.);
#279=ORIENTED_EDGE('',*,*,#367,.F.);
#280=ORIENTED_EDGE('',*,*,#384,.T.);
#281=ORIENTED_EDGE('',*,*,#348,.F.);
#282=EDGE_CURVE('',#385,#386,#448,.T.);
#283=EDGE_CURVE('',#385,#387,#63,.F.);
#284=EDGE_CURVE('',#387,#388,#449,.T.);
#285=EDGE_CURVE('',#386,#388,#64,.T.);
#286=EDGE_CURVE('',#389,#390,#450,.T.);
#287=EDGE_CURVE('',#389,#385,#451,.T.);
#288=EDGE_CURVE('',#390,#386,#452,.T.);
#289=EDGE_CURVE('',#391,#392,#453,.T.);
#290=EDGE_CURVE('',#391,#389,#65,.F.);
#291=EDGE_CURVE('',#390,#392,#66,.T.);
#292=EDGE_CURVE('',#387,#391,#454,.F.);
#293=EDGE_CURVE('',#392,#388,#455,.T.);
#294=EDGE_CURVE('',#393,#394,#456,.F.);
#295=EDGE_CURVE('',#394,#395,#67,.T.);
#296=EDGE_CURVE('',#395,#396,#457,.T.);
#297=EDGE_CURVE('',#396,#393,#68,.T.);
#298=EDGE_CURVE('',#387,#396,#69,.T.);
#299=EDGE_CURVE('',#393,#385,#70,.T.);
#300=EDGE_CURVE('',#394,#389,#71,.T.);
#301=EDGE_CURVE('',#391,#395,#72,.T.);
#302=EDGE_CURVE('',#397,#397,#73,.F.);
#303=EDGE_CURVE('',#398,#398,#74,.T.);
#304=EDGE_CURVE('',#399,#399,#75,.T.);
#305=EDGE_CURVE('',#400,#401,#458,.T.);
#306=EDGE_CURVE('',#400,#402,#459,.T.);
#307=EDGE_CURVE('',#402,#403,#460,.T.);
#308=EDGE_CURVE('',#401,#403,#461,.T.);
#309=EDGE_CURVE('',#404,#405,#462,.T.);
#310=EDGE_CURVE('',#404,#400,#463,.F.);
#311=EDGE_CURVE('',#401,#405,#464,.T.);
#312=EDGE_CURVE('',#406,#407,#465,.T.);
#313=EDGE_CURVE('',#406,#404,#466,.F.);
#314=EDGE_CURVE('',#405,#407,#467,.T.);
#315=EDGE_CURVE('',#402,#406,#468,.T.);
#316=EDGE_CURVE('',#403,#407,#469,.T.);
#317=EDGE_CURVE('',#408,#409,#470,.F.);
#318=EDGE_CURVE('',#409,#410,#471,.T.);
#319=EDGE_CURVE('',#410,#411,#472,.T.);
#320=EDGE_CURVE('',#411,#408,#473,.F.);
#321=EDGE_CURVE('',#406,#411,#10,.T.);
#322=EDGE_CURVE('',#408,#402,#11,.F.);
#323=EDGE_CURVE('',#409,#400,#12,.F.);
#324=EDGE_CURVE('',#404,#410,#13,.T.);
#325=EDGE_CURVE('',#412,#413,#474,.T.);
#326=EDGE_CURVE('',#412,#414,#475,.F.);
#327=EDGE_CURVE('',#414,#415,#476,.T.);
#328=EDGE_CURVE('',#415,#413,#477,.T.);
#329=EDGE_CURVE('',#416,#417,#478,.T.);
#330=EDGE_CURVE('',#416,#412,#479,.F.);
#331=EDGE_CURVE('',#413,#417,#480,.T.);
#332=EDGE_CURVE('',#418,#419,#481,.T.);
#333=EDGE_CURVE('',#418,#416,#482,.F.);
#334=EDGE_CURVE('',#417,#419,#483,.T.);
#335=EDGE_CURVE('',#420,#421,#484,.T.);
#336=EDGE_CURVE('',#420,#418,#485,.T.);
#337=EDGE_CURVE('',#421,#419,#486,.T.);
#338=EDGE_CURVE('',#422,#423,#487,.T.);
#339=EDGE_CURVE('',#422,#420,#488,.T.);
#340=EDGE_CURVE('',#423,#421,#489,.T.);
#341=EDGE_CURVE('',#424,#425,#490,.T.);
#342=EDGE_CURVE('',#424,#422,#491,.F.);
#343=EDGE_CURVE('',#423,#425,#492,.T.);
#344=EDGE_CURVE('',#426,#427,#493,.T.);
#345=EDGE_CURVE('',#426,#424,#494,.T.);
#346=EDGE_CURVE('',#427,#425,#495,.T.);
#347=EDGE_CURVE('',#428,#429,#496,.T.);
#348=EDGE_CURVE('',#428,#426,#497,.T.);
#349=EDGE_CURVE('',#429,#427,#498,.T.);
#350=EDGE_CURVE('',#430,#431,#499,.T.);
#351=EDGE_CURVE('',#430,#428,#500,.T.);
#352=EDGE_CURVE('',#431,#429,#501,.T.);
#353=EDGE_CURVE('',#432,#433,#502,.T.);
#354=EDGE_CURVE('',#432,#430,#503,.F.);
#355=EDGE_CURVE('',#431,#433,#504,.T.);
#356=EDGE_CURVE('',#434,#435,#505,.T.);
#357=EDGE_CURVE('',#434,#432,#506,.F.);
#358=EDGE_CURVE('',#433,#435,#507,.T.);
#359=EDGE_CURVE('',#414,#434,#508,.T.);
#360=EDGE_CURVE('',#415,#435,#509,.T.);
#361=EDGE_CURVE('',#436,#437,#510,.T.);
#362=EDGE_CURVE('',#437,#438,#511,.T.);
#363=EDGE_CURVE('',#438,#439,#512,.F.);
#364=EDGE_CURVE('',#439,#440,#513,.F.);
#365=EDGE_CURVE('',#440,#441,#514,.T.);
#366=EDGE_CURVE('',#441,#442,#515,.F.);
#367=EDGE_CURVE('',#442,#443,#516,.F.);
#368=EDGE_CURVE('',#443,#444,#517,.F.);
#369=EDGE_CURVE('',#444,#445,#518,.T.);
#370=EDGE_CURVE('',#445,#446,#519,.T.);
#371=EDGE_CURVE('',#446,#447,#520,.F.);
#372=EDGE_CURVE('',#447,#436,#521,.T.);
#373=EDGE_CURVE('',#437,#416,#14,.F.);
#374=EDGE_CURVE('',#412,#436,#15,.T.);
#375=EDGE_CURVE('',#414,#447,#16,.T.);
#376=EDGE_CURVE('',#438,#418,#17,.F.);
#377=EDGE_CURVE('',#434,#446,#18,.T.);
#378=EDGE_CURVE('',#439,#420,#19,.F.);
#379=EDGE_CURVE('',#432,#445,#20,.T.);
#380=EDGE_CURVE('',#440,#422,#21,.F.);
#381=EDGE_CURVE('',#430,#444,#22,.T.);
#382=EDGE_CURVE('',#441,#424,#23,.F.);
#383=EDGE_CURVE('',#428,#443,#24,.T.);
#384=EDGE_CURVE('',#442,#426,#25,.F.);
#385=VERTEX_POINT('',#1143);
#386=VERTEX_POINT('',#1144);
#387=VERTEX_POINT('',#1146);
#388=VERTEX_POINT('',#1148);
#389=VERTEX_POINT('',#1152);
#390=VERTEX_POINT('',#1153);
#391=VERTEX_POINT('',#1158);
#392=VERTEX_POINT('',#1159);
#393=VERTEX_POINT('',#1167);
#394=VERTEX_POINT('',#1168);
#395=VERTEX_POINT('',#1170);
#396=VERTEX_POINT('',#1172);
#397=VERTEX_POINT('',#1186);
#398=VERTEX_POINT('',#1188);
#399=VERTEX_POINT('',#1191);
#400=VERTEX_POINT('',#1197);
#401=VERTEX_POINT('',#1198);
#402=VERTEX_POINT('',#1200);
#403=VERTEX_POINT('',#1202);
#404=VERTEX_POINT('',#1206);
#405=VERTEX_POINT('',#1207);
#406=VERTEX_POINT('',#1212);
#407=VERTEX_POINT('',#1213);
#408=VERTEX_POINT('',#1221);
#409=VERTEX_POINT('',#1222);
#410=VERTEX_POINT('',#1224);
#411=VERTEX_POINT('',#1226);
#412=VERTEX_POINT('',#1240);
#413=VERTEX_POINT('',#1241);
#414=VERTEX_POINT('',#1243);
#415=VERTEX_POINT('',#1245);
#416=VERTEX_POINT('',#1249);
#417=VERTEX_POINT('',#1250);
#418=VERTEX_POINT('',#1255);
#419=VERTEX_POINT('',#1256);
#420=VERTEX_POINT('',#1261);
#421=VERTEX_POINT('',#1262);
#422=VERTEX_POINT('',#1267);
#423=VERTEX_POINT('',#1268);
#424=VERTEX_POINT('',#1273);
#425=VERTEX_POINT('',#1274);
#426=VERTEX_POINT('',#1279);
#427=VERTEX_POINT('',#1280);
#428=VERTEX_POINT('',#1285);
#429=VERTEX_POINT('',#1286);
#430=VERTEX_POINT('',#1291);
#431=VERTEX_POINT('',#1292);
#432=VERTEX_POINT('',#1297);
#433=VERTEX_POINT('',#1298);
#434=VERTEX_POINT('',#1303);
#435=VERTEX_POINT('',#1304);
#436=VERTEX_POINT('',#1312);
#437=VERTEX_POINT('',#1313);
#438=VERTEX_POINT('',#1315);
#439=VERTEX_POINT('',#1317);
#440=VERTEX_POINT('',#1319);
#441=VERTEX_POINT('',#1321);
#442=VERTEX_POINT('',#1323);
#443=VERTEX_POINT('',#1325);
#444=VERTEX_POINT('',#1327);
#445=VERTEX_POINT('',#1329);
#446=VERTEX_POINT('',#1331);
#447=VERTEX_POINT('',#1333);
#448=LINE('',#1142,#522);
#449=LINE('',#1147,#523);
#450=LINE('',#1151,#524);
#451=LINE('',#1154,#525);
#452=LINE('',#1155,#526);
#453=LINE('',#1157,#527);
#454=LINE('',#1163,#528);
#455=LINE('',#1164,#529);
#456=LINE('',#1166,#530);
#457=LINE('',#1171,#531);
#458=LINE('',#1196,#532);
#459=LINE('',#1199,#533);
#460=LINE('',#1201,#534);
#461=LINE('',#1203,#535);
#462=LINE('',#1205,#536);
#463=LINE('',#1208,#537);
#464=LINE('',#1209,#538);
#465=LINE('',#1211,#539);
#466=LINE('',#1214,#540);
#467=LINE('',#1215,#541);
#468=LINE('',#1217,#542);
#469=LINE('',#1218,#543);
#470=LINE('',#1220,#544);
#471=LINE('',#1223,#545);
#472=LINE('',#1225,#546);
#473=LINE('',#1227,#547);
#474=LINE('',#1239,#548);
#475=LINE('',#1242,#549);
#476=LINE('',#1244,#550);
#477=LINE('',#1246,#551);
#478=LINE('',#1248,#552);
#479=LINE('',#1251,#553);
#480=LINE('',#1252,#554);
#481=LINE('',#1254,#555);
#482=LINE('',#1257,#556);
#483=LINE('',#1258,#557);
#484=LINE('',#1260,#558);
#485=LINE('',#1263,#559);
#486=LINE('',#1264,#560);
#487=LINE('',#1266,#561);
#488=LINE('',#1269,#562);
#489=LINE('',#1270,#563);
#490=LINE('',#1272,#564);
#491=LINE('',#1275,#565);
#492=LINE('',#1276,#566);
#493=LINE('',#1278,#567);
#494=LINE('',#1281,#568);
#495=LINE('',#1282,#569);
#496=LINE('',#1284,#570);
#497=LINE('',#1287,#571);
#498=LINE('',#1288,#572);
#499=LINE('',#1290,#573);
#500=LINE('',#1293,#574);
#501=LINE('',#1294,#575);
#502=LINE('',#1296,#576);
#503=LINE('',#1299,#577);
#504=LINE('',#1300,#578);
#505=LINE('',#1302,#579);
#506=LINE('',#1305,#580);
#507=LINE('',#1306,#581);
#508=LINE('',#1308,#582);
#509=LINE('',#1309,#583);
#510=LINE('',#1311,#584);
#511=LINE('',#1314,#585);
#512=LINE('',#1316,#586);
#513=LINE('',#1318,#587);
#514=LINE('',#1320,#588);
#515=LINE('',#1322,#589);
#516=LINE('',#1324,#590);
#517=LINE('',#1326,#591);
#518=LINE('',#1328,#592);
#519=LINE('',#1330,#593);
#520=LINE('',#1332,#594);
#521=LINE('',#1334,#595);
#522=VECTOR('',#904,1.);
#523=VECTOR('',#907,1.);
#524=VECTOR('',#912,1.);
#525=VECTOR('',#913,1.);
#526=VECTOR('',#914,1.);
#527=VECTOR('',#917,1.);
#528=VECTOR('',#924,1.);
#529=VECTOR('',#925,1.);
#530=VECTOR('',#928,1.);
#531=VECTOR('',#931,1.);
#532=VECTOR('',#972,1.);
#533=VECTOR('',#973,1.);
#534=VECTOR('',#974,1.);
#535=VECTOR('',#975,1.);
#536=VECTOR('',#978,1.);
#537=VECTOR('',#979,1.);
#538=VECTOR('',#980,1.);
#539=VECTOR('',#983,1.);
#540=VECTOR('',#984,1.);
#541=VECTOR('',#985,1.);
#542=VECTOR('',#988,1.);
#543=VECTOR('',#989,1.);
#544=VECTOR('',#992,1.);
#545=VECTOR('',#993,1.);
#546=VECTOR('',#994,1.);
#547=VECTOR('',#995,1.);
#548=VECTOR('',#1018,1.);
#549=VECTOR('',#1019,1.);
#550=VECTOR('',#1020,1.);
#551=VECTOR('',#1021,1.);
#552=VECTOR('',#1024,1.);
#553=VECTOR('',#1025,1.);
#554=VECTOR('',#1026,1.);
#555=VECTOR('',#1029,1.);
#556=VECTOR('',#1030,1.);
#557=VECTOR('',#1031,1.);
#558=VECTOR('',#1034,1.);
#559=VECTOR('',#1035,1.);
#560=VECTOR('',#1036,1.);
#561=VECTOR('',#1039,1.);
#562=VECTOR('',#1040,1.);
#563=VECTOR('',#1041,1.);
#564=VECTOR('',#1044,1.);
#565=VECTOR('',#1045,1.);
#566=VECTOR('',#1046,1.);
#567=VECTOR('',#1049,1.);
#568=VECTOR('',#1050,1.);
#569=VECTOR('',#1051,1.);
#570=VECTOR('',#1054,1.);
#571=VECTOR('',#1055,1.);
#572=VECTOR('',#1056,1.);
#573=VECTOR('',#1059,1.);
#574=VECTOR('',#1060,1.);
#575=VECTOR('',#1061,1.);
#576=VECTOR('',#1064,1.);
#577=VECTOR('',#1065,1.);
#578=VECTOR('',#1066,1.);
#579=VECTOR('',#1069,1.);
#580=VECTOR('',#1070,1.);
#581=VECTOR('',#1071,1.);
#582=VECTOR('',#1074,1.);
#583=VECTOR('',#1075,1.);
#584=VECTOR('',#1078,1.);
#585=VECTOR('',#1079,1.);
#586=VECTOR('',#1080,1.);
#587=VECTOR('',#1081,1.);
#588=VECTOR('',#1082,1.);
#589=VECTOR('',#1083,1.);
#590=VECTOR('',#1084,1.);
#591=VECTOR('',#1085,1.);
#592=VECTOR('',#1086,1.);
#593=VECTOR('',#1087,1.);
#594=VECTOR('',#1088,1.);
#595=VECTOR('',#1089,1.);
#596=EDGE_LOOP('',(#76,#77,#78,#79));
#597=EDGE_LOOP('',(#80,#81,#82,#83));
#598=EDGE_LOOP('',(#84,#85,#86,#87));
#599=EDGE_LOOP('',(#88,#89,#90,#91));
#600=EDGE_LOOP('',(#92,#93,#94,#95));
#601=EDGE_LOOP('',(#96,#97,#98,#99));
#602=EDGE_LOOP('',(#100,#101,#102,#103));
#603=EDGE_LOOP('',(#104,#105,#106,#107));
#604=EDGE_LOOP('',(#108,#109,#110,#111));
#605=EDGE_LOOP('',(#112,#113,#114,#115));
#606=EDGE_LOOP('',(#116));
#607=EDGE_LOOP('',(#117));
#608=EDGE_LOOP('',(#118));
#609=EDGE_LOOP('',(#119));
#610=EDGE_LOOP('',(#120));
#611=EDGE_LOOP('',(#121));
#612=EDGE_LOOP('',(#122,#123,#124,#125));
#613=EDGE_LOOP('',(#126,#127,#128,#129));
#614=EDGE_LOOP('',(#130,#131,#132,#133));
#615=EDGE_LOOP('',(#134,#135,#136,#137));
#616=EDGE_LOOP('',(#138,#139,#140,#141));
#617=EDGE_LOOP('',(#142,#143,#144,#145));
#618=EDGE_LOOP('',(#146,#147,#148,#149));
#619=EDGE_LOOP('',(#150,#151,#152,#153));
#620=EDGE_LOOP('',(#154,#155,#156,#157));
#621=EDGE_LOOP('',(#158,#159,#160,#161));
#622=EDGE_LOOP('',(#162,#163,#164,#165));
#623=EDGE_LOOP('',(#166,#167,#168,#169));
#624=EDGE_LOOP('',(#170,#171,#172,#173));
#625=EDGE_LOOP('',(#174,#175,#176,#177));
#626=EDGE_LOOP('',(#178,#179,#180,#181));
#627=EDGE_LOOP('',(#182,#183,#184,#185));
#628=EDGE_LOOP('',(#186,#187,#188,#189));
#629=EDGE_LOOP('',(#190,#191,#192,#193));
#630=EDGE_LOOP('',(#194,#195,#196,#197));
#631=EDGE_LOOP('',(#198,#199,#200,#201));
#632=EDGE_LOOP('',(#202,#203,#204,#205));
#633=EDGE_LOOP('',(#206,#207,#208,#209));
#634=EDGE_LOOP('',(#210,#211,#212,#213,#214,#215,#216,#217,#218,#219,#220,
#221));
#635=EDGE_LOOP('',(#222,#223,#224,#225,#226,#227,#228,#229,#230,#231,#232,
#233));
#636=EDGE_LOOP('',(#234,#235,#236,#237));
#637=EDGE_LOOP('',(#238,#239,#240,#241));
#638=EDGE_LOOP('',(#242,#243,#244,#245));
#639=EDGE_LOOP('',(#246,#247,#248,#249));
#640=EDGE_LOOP('',(#250,#251,#252,#253));
#641=EDGE_LOOP('',(#254,#255,#256,#257));
#642=EDGE_LOOP('',(#258,#259,#260,#261));
#643=EDGE_LOOP('',(#262,#263,#264,#265));
#644=EDGE_LOOP('',(#266,#267,#268,#269));
#645=EDGE_LOOP('',(#270,#271,#272,#273));
#646=EDGE_LOOP('',(#274,#275,#276,#277));
#647=EDGE_LOOP('',(#278,#279,#280,#281));
#648=FACE_BOUND('',#596,.T.);
#649=FACE_BOUND('',#597,.T.);
#650=FACE_BOUND('',#598,.T.);
#651=FACE_BOUND('',#599,.T.);
#652=FACE_BOUND('',#600,.T.);
#653=FACE_BOUND('',#601,.T.);
#654=FACE_BOUND('',#602,.T.);
#655=FACE_BOUND('',#603,.T.);
#656=FACE_BOUND('',#604,.T.);
#657=FACE_BOUND('',#605,.T.);
#658=FACE_BOUND('',#606,.T.);
#659=FACE_BOUND('',#607,.T.);
#660=FACE_BOUND('',#608,.T.);
#661=FACE_BOUND('',#609,.T.);
#662=FACE_BOUND('',#610,.T.);
#663=FACE_BOUND('',#611,.T.);
#664=FACE_BOUND('',#612,.T.);
#665=FACE_BOUND('',#613,.T.);
#666=FACE_BOUND('',#614,.T.);
#667=FACE_BOUND('',#615,.T.);
#668=FACE_BOUND('',#616,.T.);
#669=FACE_BOUND('',#617,.T.);
#670=FACE_BOUND('',#618,.T.);
#671=FACE_BOUND('',#619,.T.);
#672=FACE_BOUND('',#620,.T.);
#673=FACE_BOUND('',#621,.T.);
#674=FACE_BOUND('',#622,.T.);
#675=FACE_BOUND('',#623,.T.);
#676=FACE_BOUND('',#624,.T.);
#677=FACE_BOUND('',#625,.T.);
#678=FACE_BOUND('',#626,.T.);
#679=FACE_BOUND('',#627,.T.);
#680=FACE_BOUND('',#628,.T.);
#681=FACE_BOUND('',#629,.T.);
#682=FACE_BOUND('',#630,.T.);
#683=FACE_BOUND('',#631,.T.);
#684=FACE_BOUND('',#632,.T.);
#685=FACE_BOUND('',#633,.T.);
#686=FACE_BOUND('',#634,.T.);
#687=FACE_BOUND('',#635,.T.);
#688=FACE_BOUND('',#636,.T.);
#689=FACE_BOUND('',#637,.T.);
#690=FACE_BOUND('',#638,.T.);
#691=FACE_BOUND('',#639,.T.);
#692=FACE_BOUND('',#640,.T.);
#693=FACE_BOUND('',#641,.T.);
#694=FACE_BOUND('',#642,.T.);
#695=FACE_BOUND('',#643,.T.);
#696=FACE_BOUND('',#644,.T.);
#697=FACE_BOUND('',#645,.T.);
#698=FACE_BOUND('',#646,.T.);
#699=FACE_BOUND('',#647,.T.);
#700=CYLINDRICAL_SURFACE('',#818,0.00205);
#701=CYLINDRICAL_SURFACE('',#822,0.00205);
#702=CYLINDRICAL_SURFACE('',#833,0.0015);
#703=CYLINDRICAL_SURFACE('',#835,0.0015);
#704=CYLINDRICAL_SURFACE('',#839,0.00335);
#705=CYLINDRICAL_SURFACE('',#853,0.0015);
#706=CYLINDRICAL_SURFACE('',#856,0.0015);
#707=CYLINDRICAL_SURFACE('',#858,0.0015);
#708=CYLINDRICAL_SURFACE('',#860,0.0015);
#709=CYLINDRICAL_SURFACE('',#876,0.00162913);
#710=CYLINDRICAL_SURFACE('',#879,0.00162913);
#711=CYLINDRICAL_SURFACE('',#881,0.00162913);
#712=CYLINDRICAL_SURFACE('',#883,0.00162913);
#713=CYLINDRICAL_SURFACE('',#885,0.00162913);
#714=CYLINDRICAL_SURFACE('',#887,0.00162913);
#715=CYLINDRICAL_SURFACE('',#889,0.00162913);
#716=CYLINDRICAL_SURFACE('',#891,0.00162913);
#717=CYLINDRICAL_SURFACE('',#893,0.00162913);
#718=CYLINDRICAL_SURFACE('',#895,0.00162913);
#719=CYLINDRICAL_SURFACE('',#897,0.00162913);
#720=CYLINDRICAL_SURFACE('',#899,0.00162913);
#721=ADVANCED_FACE('',(#648),#700,.T.);
#722=ADVANCED_FACE('',(#649),#37,.T.);
#723=ADVANCED_FACE('',(#650),#701,.T.);
#724=ADVANCED_FACE('',(#651),#38,.F.);
#725=ADVANCED_FACE('',(#652),#39,.T.);
#726=ADVANCED_FACE('',(#653),#40,.F.);
#727=ADVANCED_FACE('',(#654),#35,.T.);
#728=ADVANCED_FACE('',(#655),#702,.T.);
#729=ADVANCED_FACE('',(#656),#703,.T.);
#730=ADVANCED_FACE('',(#657),#36,.T.);
#731=ADVANCED_FACE('',(#658,#659),#704,.T.);
#732=ADVANCED_FACE('',(#660),#41,.T.);
#733=ADVANCED_FACE('',(#661),#42,.F.);
#734=ADVANCED_FACE('',(#662,#663),#26,.T.);
#735=ADVANCED_FACE('',(#664),#43,.T.);
#736=ADVANCED_FACE('',(#665),#44,.F.);
#737=ADVANCED_FACE('',(#666),#45,.F.);
#738=ADVANCED_FACE('',(#667),#46,.T.);
#739=ADVANCED_FACE('',(#668),#47,.T.);
#740=ADVANCED_FACE('',(#669),#48,.F.);
#741=ADVANCED_FACE('',(#670),#705,.T.);
#742=ADVANCED_FACE('',(#671),#706,.T.);
#743=ADVANCED_FACE('',(#672),#707,.T.);
#744=ADVANCED_FACE('',(#673),#708,.T.);
#745=ADVANCED_FACE('',(#674),#49,.F.);
#746=ADVANCED_FACE('',(#675),#50,.F.);
#747=ADVANCED_FACE('',(#676),#51,.F.);
#748=ADVANCED_FACE('',(#677),#52,.T.);
#749=ADVANCED_FACE('',(#678),#53,.T.);
#750=ADVANCED_FACE('',(#679),#54,.F.);
#751=ADVANCED_FACE('',(#680),#55,.T.);
#752=ADVANCED_FACE('',(#681),#56,.T.);
#753=ADVANCED_FACE('',(#682),#57,.T.);
#754=ADVANCED_FACE('',(#683),#58,.F.);
#755=ADVANCED_FACE('',(#684),#59,.F.);
#756=ADVANCED_FACE('',(#685),#60,.T.);
#757=ADVANCED_FACE('',(#686),#61,.T.);
#758=ADVANCED_FACE('',(#687),#62,.F.);
#759=ADVANCED_FACE('',(#688),#709,.T.);
#760=ADVANCED_FACE('',(#689),#710,.T.);
#761=ADVANCED_FACE('',(#690),#711,.T.);
#762=ADVANCED_FACE('',(#691),#712,.T.);
#763=ADVANCED_FACE('',(#692),#713,.T.);
#764=ADVANCED_FACE('',(#693),#714,.T.);
#765=ADVANCED_FACE('',(#694),#715,.T.);
#766=ADVANCED_FACE('',(#695),#716,.T.);
#767=ADVANCED_FACE('',(#696),#717,.T.);
#768=ADVANCED_FACE('',(#697),#718,.T.);
#769=ADVANCED_FACE('',(#698),#719,.T.);
#770=ADVANCED_FACE('',(#699),#720,.T.);
#771=CLOSED_SHELL('',(#721,#722,#723,#724,#725,#726,#727,#728,#729,#730));
#772=CLOSED_SHELL('',(#731,#732,#733,#734));
#773=CLOSED_SHELL('',(#735,#736,#737,#738,#739,#740,#741,#742,#743,#744));
#774=CLOSED_SHELL('',(#745,#746,#747,#748,#749,#750,#751,#752,#753,#754,
#755,#756,#757,#758,#759,#760,#761,#762,#763,#764,#765,#766,#767,#768,#769,
#770));
#775=STYLED_ITEM('',(#779),#805);
#776=STYLED_ITEM('',(#780),#806);
#777=STYLED_ITEM('',(#781),#807);
#778=STYLED_ITEM('',(#782),#808);
#779=PRESENTATION_STYLE_ASSIGNMENT((#783));
#780=PRESENTATION_STYLE_ASSIGNMENT((#784));
#781=PRESENTATION_STYLE_ASSIGNMENT((#785));
#782=PRESENTATION_STYLE_ASSIGNMENT((#786));
#783=SURFACE_STYLE_USAGE(.BOTH.,#787);
#784=SURFACE_STYLE_USAGE(.BOTH.,#788);
#785=SURFACE_STYLE_USAGE(.BOTH.,#789);
#786=SURFACE_STYLE_USAGE(.BOTH.,#790);
#787=SURFACE_SIDE_STYLE('',(#791));
#788=SURFACE_SIDE_STYLE('',(#792));
#789=SURFACE_SIDE_STYLE('',(#793));
#790=SURFACE_SIDE_STYLE('',(#794));
#791=SURFACE_STYLE_FILL_AREA(#795);
#792=SURFACE_STYLE_FILL_AREA(#796);
#793=SURFACE_STYLE_FILL_AREA(#797);
#794=SURFACE_STYLE_FILL_AREA(#798);
#795=FILL_AREA_STYLE('',(#799));
#796=FILL_AREA_STYLE('',(#800));
#797=FILL_AREA_STYLE('',(#801));
#798=FILL_AREA_STYLE('',(#802));
#799=FILL_AREA_STYLE_COLOUR('',#803);
#800=FILL_AREA_STYLE_COLOUR('',#804);
#801=FILL_AREA_STYLE_COLOUR('',#804);
#802=FILL_AREA_STYLE_COLOUR('',#804);
#803=COLOUR_RGB('',0.647058823529412,0.647058823529412,0.647058823529412);
#804=COLOUR_RGB('',0.917647058823529,0.917647058823529,0.917647058823529);
#805=MANIFOLD_SOLID_BREP('Part 2',#771);
#806=MANIFOLD_SOLID_BREP('Part 3',#772);
#807=MANIFOLD_SOLID_BREP('Part 4',#773);
#808=MANIFOLD_SOLID_BREP('Part 1',#774);
#809=SHAPE_DEFINITION_REPRESENTATION(#1384,#813);
#810=SHAPE_DEFINITION_REPRESENTATION(#1385,#814);
#811=SHAPE_DEFINITION_REPRESENTATION(#1386,#815);
#812=SHAPE_DEFINITION_REPRESENTATION(#1387,#816);
#813=SHAPE_REPRESENTATION('Part 2',(#817),#1364);
#814=SHAPE_REPRESENTATION('Part 3',(#838),#1365);
#815=SHAPE_REPRESENTATION('Part 4',(#846),#1366);
#816=SHAPE_REPRESENTATION('Part 1',(#861),#1367);
#817=AXIS2_PLACEMENT_3D('',#1140,#900,#901);
#818=AXIS2_PLACEMENT_3D('',#1141,#902,#903);
#819=AXIS2_PLACEMENT_3D('',#1145,#905,#906);
#820=AXIS2_PLACEMENT_3D('',#1149,#908,#909);
#821=AXIS2_PLACEMENT_3D('',#1150,#910,#911);
#822=AXIS2_PLACEMENT_3D('',#1156,#915,#916);
#823=AXIS2_PLACEMENT_3D('',#1160,#918,#919);
#824=AXIS2_PLACEMENT_3D('',#1161,#920,#921);
#825=AXIS2_PLACEMENT_3D('',#1162,#922,#923);
#826=AXIS2_PLACEMENT_3D('',#1165,#926,#927);
#827=AXIS2_PLACEMENT_3D('',#1169,#929,#930);
#828=AXIS2_PLACEMENT_3D('',#1173,#932,#933);
#829=AXIS2_PLACEMENT_3D('',#1174,#934,#935);
#830=AXIS2_PLACEMENT_3D('',#1175,#936,#937);
#831=AXIS2_PLACEMENT_3D('',#1176,#938,#939);
#832=AXIS2_PLACEMENT_3D('',#1177,#940,#941);
#833=AXIS2_PLACEMENT_3D('',#1178,#942,#943);
#834=AXIS2_PLACEMENT_3D('',#1179,#944,#945);
#835=AXIS2_PLACEMENT_3D('',#1180,#946,#947);
#836=AXIS2_PLACEMENT_3D('',#1181,#948,#949);
#837=AXIS2_PLACEMENT_3D('',#1182,#950,#951);
#838=AXIS2_PLACEMENT_3D('',#1183,#952,#953);
#839=AXIS2_PLACEMENT_3D('',#1184,#954,#955);
#840=AXIS2_PLACEMENT_3D('',#1185,#956,#957);
#841=AXIS2_PLACEMENT_3D('',#1187,#958,#959);
#842=AXIS2_PLACEMENT_3D('',#1189,#960,#961);
#843=AXIS2_PLACEMENT_3D('',#1190,#962,#963);
#844=AXIS2_PLACEMENT_3D('',#1192,#964,#965);
#845=AXIS2_PLACEMENT_3D('',#1193,#966,#967);
#846=AXIS2_PLACEMENT_3D('',#1194,#968,#969);
#847=AXIS2_PLACEMENT_3D('',#1195,#970,#971);
#848=AXIS2_PLACEMENT_3D('',#1204,#976,#977);
#849=AXIS2_PLACEMENT_3D('',#1210,#981,#982);
#850=AXIS2_PLACEMENT_3D('',#1216,#986,#987);
#851=AXIS2_PLACEMENT_3D('',#1219,#990,#991);
#852=AXIS2_PLACEMENT_3D('',#1228,#996,#997);
#853=AXIS2_PLACEMENT_3D('',#1229,#998,#999);
#854=AXIS2_PLACEMENT_3D('',#1230,#1000,#1001);
#855=AXIS2_PLACEMENT_3D('',#1231,#1002,#1003);
#856=AXIS2_PLACEMENT_3D('',#1232,#1004,#1005);
#857=AXIS2_PLACEMENT_3D('',#1233,#1006,#1007);
#858=AXIS2_PLACEMENT_3D('',#1234,#1008,#1009);
#859=AXIS2_PLACEMENT_3D('',#1235,#1010,#1011);
#860=AXIS2_PLACEMENT_3D('',#1236,#1012,#1013);
#861=AXIS2_PLACEMENT_3D('',#1237,#1014,#1015);
#862=AXIS2_PLACEMENT_3D('',#1238,#1016,#1017);
#863=AXIS2_PLACEMENT_3D('',#1247,#1022,#1023);
#864=AXIS2_PLACEMENT_3D('',#1253,#1027,#1028);
#865=AXIS2_PLACEMENT_3D('',#1259,#1032,#1033);
#866=AXIS2_PLACEMENT_3D('',#1265,#1037,#1038);
#867=AXIS2_PLACEMENT_3D('',#1271,#1042,#1043);
#868=AXIS2_PLACEMENT_3D('',#1277,#1047,#1048);
#869=AXIS2_PLACEMENT_3D('',#1283,#1052,#1053);
#870=AXIS2_PLACEMENT_3D('',#1289,#1057,#1058);
#871=AXIS2_PLACEMENT_3D('',#1295,#1062,#1063);
#872=AXIS2_PLACEMENT_3D('',#1301,#1067,#1068);
#873=AXIS2_PLACEMENT_3D('',#1307,#1072,#1073);
#874=AXIS2_PLACEMENT_3D('',#1310,#1076,#1077);
#875=AXIS2_PLACEMENT_3D('',#1335,#1090,#1091);
#876=AXIS2_PLACEMENT_3D('',#1336,#1092,#1093);
#877=AXIS2_PLACEMENT_3D('',#1337,#1094,#1095);
#878=AXIS2_PLACEMENT_3D('',#1338,#1096,#1097);
#879=AXIS2_PLACEMENT_3D('',#1339,#1098,#1099);
#880=AXIS2_PLACEMENT_3D('',#1340,#1100,#1101);
#881=AXIS2_PLACEMENT_3D('',#1341,#1102,#1103);
#882=AXIS2_PLACEMENT_3D('',#1342,#1104,#1105);
#883=AXIS2_PLACEMENT_3D('',#1343,#1106,#1107);
#884=AXIS2_PLACEMENT_3D('',#1344,#1108,#1109);
#885=AXIS2_PLACEMENT_3D('',#1345,#1110,#1111);
#886=AXIS2_PLACEMENT_3D('',#1346,#1112,#1113);
#887=AXIS2_PLACEMENT_3D('',#1347,#1114,#1115);
#888=AXIS2_PLACEMENT_3D('',#1348,#1116,#1117);
#889=AXIS2_PLACEMENT_3D('',#1349,#1118,#1119);
#890=AXIS2_PLACEMENT_3D('',#1350,#1120,#1121);
#891=AXIS2_PLACEMENT_3D('',#1351,#1122,#1123);
#892=AXIS2_PLACEMENT_3D('',#1352,#1124,#1125);
#893=AXIS2_PLACEMENT_3D('',#1353,#1126,#1127);
#894=AXIS2_PLACEMENT_3D('',#1354,#1128,#1129);
#895=AXIS2_PLACEMENT_3D('',#1355,#1130,#1131);
#896=AXIS2_PLACEMENT_3D('',#1356,#1132,#1133);
#897=AXIS2_PLACEMENT_3D('',#1357,#1134,#1135);
#898=AXIS2_PLACEMENT_3D('',#1358,#1136,#1137);
#899=AXIS2_PLACEMENT_3D('',#1359,#1138,#1139);
#900=DIRECTION('',(0.,0.,1.));
#901=DIRECTION('',(1.,0.,0.));
#902=DIRECTION('',(0.,0.,-1.));
#903=DIRECTION('',(-1.,0.,0.));
#904=DIRECTION('',(0.,0.,-1.));
#905=DIRECTION('',(0.,0.,1.));
#906=DIRECTION('',(1.,0.,0.));
#907=DIRECTION('',(0.,0.,-1.));
#908=DIRECTION('',(0.,0.,-1.));
#909=DIRECTION('',(1.,0.,0.));
#910=DIRECTION('',(-0.976744186046511,-0.214408010634721,0.));
#911=DIRECTION('',(0.214408010634721,-0.976744186046511,0.));
#912=DIRECTION('',(0.,0.,-1.));
#913=DIRECTION('',(-0.214408010634721,0.976744186046511,0.));
#914=DIRECTION('',(-0.214408010634721,0.976744186046511,0.));
#915=DIRECTION('',(0.,0.,-1.));
#916=DIRECTION('',(-1.,0.,0.));
#917=DIRECTION('',(0.,0.,-1.));
#918=DIRECTION('',(0.,0.,1.));
#919=DIRECTION('',(1.,0.,0.));
#920=DIRECTION('',(0.,0.,1.));
#921=DIRECTION('',(1.,0.,0.));
#922=DIRECTION('',(-0.976744186046511,-0.214408010634721,0.));
#923=DIRECTION('',(0.214408010634721,-0.976744186046511,0.));
#924=DIRECTION('',(-0.214408010634721,0.976744186046511,0.));
#925=DIRECTION('',(-0.214408010634721,0.976744186046511,0.));
#926=DIRECTION('',(0.,0.,1.));
#927=DIRECTION('',(1.,0.,0.));
#928=DIRECTION('',(-0.214408010634721,0.976744186046511,0.));
#929=DIRECTION('',(0.,0.,1.));
#930=DIRECTION('',(1.,0.,0.));
#931=DIRECTION('',(-0.214408010634721,0.976744186046511,0.));
#932=DIRECTION('',(0.,0.,1.));
#933=DIRECTION('',(1.,0.,0.));
#934=DIRECTION('',(0.,0.,1.));
#935=DIRECTION('',(1.,0.,0.));
#936=DIRECTION('',(0.,0.,1.));
#937=DIRECTION('',(1.,0.,0.));
#938=DIRECTION('',(0.214408010634723,-0.976744186046511,2.12142367166727E-15));
#939=DIRECTION('',(0.976744186046511,0.214408010634723,0.));
#940=DIRECTION('',(0.214408010634721,-0.976744186046511,0.));
#941=DIRECTION('',(0.976744186046511,0.214408010634721,0.));
#942=DIRECTION('',(-0.214408010634721,0.976744186046511,0.));
#943=DIRECTION('',(-0.976744186046511,-0.214408010634721,0.));
#944=DIRECTION('',(0.214408010634722,-0.976744186046511,0.));
#945=DIRECTION('',(0.976744186046511,0.214408010634722,0.));
#946=DIRECTION('',(0.214408010634721,-0.976744186046511,0.));
#947=DIRECTION('',(0.976744186046511,0.214408010634721,0.));
#948=DIRECTION('',(0.214408010634721,-0.976744186046511,-5.64793689852914E-16));
#949=DIRECTION('',(0.976744186046511,0.214408010634721,0.));
#950=DIRECTION('',(0.,0.,1.));
#951=DIRECTION('',(1.,0.,0.));
#952=DIRECTION('',(0.,0.,1.));
#953=DIRECTION('',(1.,0.,0.));
#954=DIRECTION('',(0.,0.,-1.));
#955=DIRECTION('',(-1.,0.,0.));
#956=DIRECTION('',(0.,0.,1.));
#957=DIRECTION('',(1.,0.,0.));
#958=DIRECTION('',(0.,0.,1.));
#959=DIRECTION('',(1.,0.,0.));
#960=DIRECTION('',(0.,0.,1.));
#961=DIRECTION('',(1.,0.,0.));
#962=DIRECTION('',(0.,0.,1.));
#963=DIRECTION('',(1.,0.,0.));
#964=DIRECTION('',(0.,0.,1.));
#965=DIRECTION('',(1.,0.,0.));
#966=DIRECTION('',(0.,0.,1.));
#967=DIRECTION('',(1.,0.,0.));
#968=DIRECTION('',(0.,0.,1.));
#969=DIRECTION('',(1.,0.,0.));
#970=DIRECTION('',(0.,-1.,0.));
#971=DIRECTION('',(0.,0.,-1.));
#972=DIRECTION('',(0.,0.,-1.));
#973=DIRECTION('',(-1.,0.,0.));
#974=DIRECTION('',(0.,0.,-1.));
#975=DIRECTION('',(-1.,0.,0.));
#976=DIRECTION('',(-1.,0.,0.));
#977=DIRECTION('',(0.,0.,1.));
#978=DIRECTION('',(0.,0.,-1.));
#979=DIRECTION('',(0.,1.,0.));
#980=DIRECTION('',(0.,1.,0.));
#981=DIRECTION('',(0.,-1.,0.));
#982=DIRECTION('',(0.,0.,-1.));
#983=DIRECTION('',(0.,0.,-1.));
#984=DIRECTION('',(-1.,0.,0.));
#985=DIRECTION('',(-1.,0.,0.));
#986=DIRECTION('',(-1.,0.,0.));
#987=DIRECTION('',(0.,0.,1.));
#988=DIRECTION('',(0.,1.,0.));
#989=DIRECTION('',(0.,1.,0.));
#990=DIRECTION('',(0.,0.,1.));
#991=DIRECTION('',(1.,0.,0.));
#992=DIRECTION('',(-1.,0.,0.));
#993=DIRECTION('',(0.,1.,0.));
#994=DIRECTION('',(-1.,0.,0.));
#995=DIRECTION('',(0.,1.,0.));
#996=DIRECTION('',(0.,0.,1.));
#997=DIRECTION('',(1.,0.,0.));
#998=DIRECTION('',(0.,1.,0.));
#999=DIRECTION('',(0.,0.,1.));
#1000=DIRECTION('',(0.707106781186548,0.707106781186548,0.));
#1001=DIRECTION('',(-0.707106781186548,0.707106781186548,0.));
#1002=DIRECTION('',(-0.707106781186548,0.707106781186548,0.));
#1003=DIRECTION('',(-0.707106781186548,-0.707106781186548,0.));
#1004=DIRECTION('',(-1.,0.,0.));
#1005=DIRECTION('',(0.,0.,1.));
#1006=DIRECTION('',(-0.707106781186548,-0.707106781186548,0.));
#1007=DIRECTION('',(-0.707106781186548,0.707106781186548,0.));
#1008=DIRECTION('',(1.,0.,0.));
#1009=DIRECTION('',(0.,0.,-1.));
#1010=DIRECTION('',(0.707106781186548,-0.707106781186548,0.));
#1011=DIRECTION('',(0.707106781186548,0.707106781186548,0.));
#1012=DIRECTION('',(0.,-1.,0.));
#1013=DIRECTION('',(0.,0.,-1.));
#1014=DIRECTION('',(0.,0.,1.));
#1015=DIRECTION('',(1.,0.,0.));
#1016=DIRECTION('',(0.,-1.,0.));
#1017=DIRECTION('',(0.,0.,-1.));
#1018=DIRECTION('',(0.,0.,-1.));
#1019=DIRECTION('',(-1.,0.,0.));
#1020=DIRECTION('',(0.,0.,-1.));
#1021=DIRECTION('',(-1.,0.,0.));
#1022=DIRECTION('',(1.,0.,0.));
#1023=DIRECTION('',(0.,0.,-1.));
#1024=DIRECTION('',(0.,0.,-1.));
#1025=DIRECTION('',(0.,-1.,0.));
#1026=DIRECTION('',(0.,-1.,0.));
#1027=DIRECTION('',(0.,-1.,0.));
#1028=DIRECTION('',(0.,0.,-1.));
#1029=DIRECTION('',(0.,0.,-1.));
#1030=DIRECTION('',(-1.,0.,0.));
#1031=DIRECTION('',(-1.,0.,0.));
#1032=DIRECTION('',(-1.,0.,0.));
#1033=DIRECTION('',(0.,0.,1.));
#1034=DIRECTION('',(0.,0.,-1.));
#1035=DIRECTION('',(0.,1.,0.));
#1036=DIRECTION('',(0.,1.,0.));
#1037=DIRECTION('',(0.,-1.,0.));
#1038=DIRECTION('',(0.,0.,-1.));
#1039=DIRECTION('',(0.,0.,-1.));
#1040=DIRECTION('',(-1.,0.,0.));
#1041=DIRECTION('',(-1.,0.,0.));
#1042=DIRECTION('',(1.,0.,0.));
#1043=DIRECTION('',(0.,0.,-1.));
#1044=DIRECTION('',(0.,0.,-1.));
#1045=DIRECTION('',(0.,-1.,0.));
#1046=DIRECTION('',(0.,-1.,0.));
#1047=DIRECTION('',(0.,-1.,0.));
#1048=DIRECTION('',(0.,0.,-1.));
#1049=DIRECTION('',(0.,0.,-1.));
#1050=DIRECTION('',(-1.,0.,0.));
#1051=DIRECTION('',(-1.,0.,0.));
#1052=DIRECTION('',(1.,0.,0.));
#1053=DIRECTION('',(0.,0.,-1.));
#1054=DIRECTION('',(0.,0.,-1.));
#1055=DIRECTION('',(0.,-1.,0.));
#1056=DIRECTION('',(0.,-1.,0.));
#1057=DIRECTION('',(0.,-1.,0.));
#1058=DIRECTION('',(0.,0.,-1.));
#1059=DIRECTION('',(0.,0.,-1.));
#1060=DIRECTION('',(-1.,0.,0.));
#1061=DIRECTION('',(-1.,0.,0.));
#1062=DIRECTION('',(-1.,0.,0.));
#1063=DIRECTION('',(0.,0.,1.));
#1064=DIRECTION('',(0.,0.,-1.));
#1065=DIRECTION('',(0.,1.,0.));
#1066=DIRECTION('',(0.,1.,0.));
#1067=DIRECTION('',(0.,-1.,0.));
#1068=DIRECTION('',(0.,0.,-1.));
#1069=DIRECTION('',(0.,0.,-1.));
#1070=DIRECTION('',(-1.,0.,0.));
#1071=DIRECTION('',(-1.,0.,0.));
#1072=DIRECTION('',(1.,0.,0.));
#1073=DIRECTION('',(0.,0.,-1.));
#1074=DIRECTION('',(0.,-1.,0.));
#1075=DIRECTION('',(0.,-1.,0.));
#1076=DIRECTION('',(0.,0.,1.));
#1077=DIRECTION('',(1.,0.,0.));
#1078=DIRECTION('',(0.,-1.,0.));
#1079=DIRECTION('',(-1.,0.,0.));
#1080=DIRECTION('',(0.,1.,0.));
#1081=DIRECTION('',(-1.,0.,0.));
#1082=DIRECTION('',(0.,-1.,0.));
#1083=DIRECTION('',(-1.,0.,0.));
#1084=DIRECTION('',(0.,-1.,0.));
#1085=DIRECTION('',(-1.,0.,0.));
#1086=DIRECTION('',(0.,1.,0.));
#1087=DIRECTION('',(-1.,0.,0.));
#1088=DIRECTION('',(0.,-1.,0.));
#1089=DIRECTION('',(-1.,0.,0.));
#1090=DIRECTION('',(0.,0.,1.));
#1091=DIRECTION('',(1.,0.,0.));
#1092=DIRECTION('',(0.,1.,0.));
#1093=DIRECTION('',(0.,0.,1.));
#1094=DIRECTION('',(0.707106781186548,0.707106781186548,0.));
#1095=DIRECTION('',(0.707106781186548,-0.707106781186548,0.));
#1096=DIRECTION('',(0.707106781186548,0.707106781186548,0.));
#1097=DIRECTION('',(0.707106781186548,-0.707106781186548,0.));
#1098=DIRECTION('',(1.,0.,0.));
#1099=DIRECTION('',(0.,0.,-1.));
#1100=DIRECTION('',(0.707106781186548,-0.707106781186548,0.));
#1101=DIRECTION('',(0.707106781186548,0.707106781186548,0.));
#1102=DIRECTION('',(1.,0.,0.));
#1103=DIRECTION('',(0.,0.,-1.));
#1104=DIRECTION('',(0.707106781186548,0.707106781186548,0.));
#1105=DIRECTION('',(-0.707106781186548,0.707106781186548,0.));
#1106=DIRECTION('',(0.,-1.,0.));
#1107=DIRECTION('',(0.,0.,-1.));
#1108=DIRECTION('',(0.707106781186548,-0.707106781186548,0.));
#1109=DIRECTION('',(-0.707106781186548,-0.707106781186548,0.));
#1110=DIRECTION('',(0.,1.,0.));
#1111=DIRECTION('',(0.,0.,1.));
#1112=DIRECTION('',(-0.707106781186548,0.707106781186548,0.));
#1113=DIRECTION('',(0.707106781186548,0.707106781186548,0.));
#1114=DIRECTION('',(1.,0.,0.));
#1115=DIRECTION('',(0.,0.,-1.));
#1116=DIRECTION('',(0.707106781186548,-0.707106781186548,0.));
#1117=DIRECTION('',(0.707106781186548,0.707106781186548,0.));
#1118=DIRECTION('',(-1.,0.,0.));
#1119=DIRECTION('',(0.,0.,1.));
#1120=DIRECTION('',(-0.707106781186548,0.707106781186548,0.));
#1121=DIRECTION('',(-0.707106781186548,-0.707106781186548,0.));
#1122=DIRECTION('',(0.,-1.,0.));
#1123=DIRECTION('',(0.,0.,-1.));
#1124=DIRECTION('',(-0.707106781186548,-0.707106781186548,0.));
#1125=DIRECTION('',(-0.707106781186548,0.707106781186548,0.));
#1126=DIRECTION('',(0.,1.,0.));
#1127=DIRECTION('',(0.,0.,1.));
#1128=DIRECTION('',(-0.707106781186548,0.707106781186548,0.));
#1129=DIRECTION('',(-0.707106781186548,-0.707106781186548,0.));
#1130=DIRECTION('',(-1.,0.,0.));
#1131=DIRECTION('',(0.,0.,1.));
#1132=DIRECTION('',(-0.707106781186548,-0.707106781186548,0.));
#1133=DIRECTION('',(0.707106781186548,-0.707106781186548,0.));
#1134=DIRECTION('',(-1.,0.,0.));
#1135=DIRECTION('',(0.,0.,1.));
#1136=DIRECTION('',(-0.707106781186548,-0.707106781186548,0.));
#1137=DIRECTION('',(-0.707106781186548,0.707106781186548,0.));
#1138=DIRECTION('',(0.,-1.,0.));
#1139=DIRECTION('',(0.,0.,-1.));
#1140=CARTESIAN_POINT('',(0.,0.,0.));
#1141=CARTESIAN_POINT('',(-0.0451982856141388,0.00873405589810003,0.005));
#1142=CARTESIAN_POINT('',(-0.0472006111955341,0.00829451947629886,0.005));
#1143=CARTESIAN_POINT('',(-0.0472006111955341,0.00829451947629886,0.0035));
#1144=CARTESIAN_POINT('',(-0.0472006111955341,0.00829451947629886,0.));
#1145=CARTESIAN_POINT('',(-0.0451982856141388,0.00873405589810003,0.0035));
#1146=CARTESIAN_POINT('',(-0.0431959600327434,0.00917359231990121,0.0035));
#1147=CARTESIAN_POINT('',(-0.0431959600327434,0.00917359231990121,0.005));
#1148=CARTESIAN_POINT('',(-0.0431959600327434,0.00917359231990121,0.));
#1149=CARTESIAN_POINT('',(-0.0451982856141388,0.00873405589810003,0.));
#1150=CARTESIAN_POINT('',(-0.0464716239593761,0.00497358924374072,0.005));
#1151=CARTESIAN_POINT('',(-0.045742636723218,0.00165265901118258,0.005));
#1152=CARTESIAN_POINT('',(-0.045742636723218,0.00165265901118258,0.0035));
#1153=CARTESIAN_POINT('',(-0.045742636723218,0.00165265901118258,0.));
#1154=CARTESIAN_POINT('',(-0.0464716239593761,0.00497358924374072,0.0035));
#1155=CARTESIAN_POINT('',(-0.0464716239593761,0.00497358924374072,0.));
#1156=CARTESIAN_POINT('',(-0.0437403111418226,0.00209219543298376,0.005));
#1157=CARTESIAN_POINT('',(-0.0417379855604273,0.00253173185478494,0.005));
#1158=CARTESIAN_POINT('',(-0.0417379855604273,0.00253173185478494,0.0035));
#1159=CARTESIAN_POINT('',(-0.0417379855604273,0.00253173185478494,0.));
#1160=CARTESIAN_POINT('',(-0.0437403111418226,0.00209219543298376,0.0035));
#1161=CARTESIAN_POINT('',(-0.0437403111418226,0.00209219543298376,0.));
#1162=CARTESIAN_POINT('',(-0.0424669727965854,0.00585266208734308,0.005));
#1163=CARTESIAN_POINT('',(-0.0417379855604273,0.00253173185478494,0.0035));
#1164=CARTESIAN_POINT('',(-0.0424669727965854,0.00585266208734308,0.));
#1165=CARTESIAN_POINT('',(-0.0326850522694242,0.00219202794905002,0.005));
#1166=CARTESIAN_POINT('',(-0.0437902085075839,-0.000245697804352341,0.005));
#1167=CARTESIAN_POINT('',(-0.0457354949164643,0.00861613149225094,0.005));
#1168=CARTESIAN_POINT('',(-0.0442775204441482,0.00197427102713466,0.005));
#1169=CARTESIAN_POINT('',(-0.0437403111418226,0.00209219543298376,0.005));
#1170=CARTESIAN_POINT('',(-0.0432031018394971,0.00221011983883286,0.005));
#1171=CARTESIAN_POINT('',(-0.0446610763118132,0.00885198030394913,0.005));
#1172=CARTESIAN_POINT('',(-0.0446610763118132,0.00885198030394913,0.005));
#1173=CARTESIAN_POINT('',(-0.0451982856141388,0.00873405589810003,0.005));
#1174=CARTESIAN_POINT('',(-0.0326850522694242,0.00219202794905002,0.));
#1175=CARTESIAN_POINT('',(-0.0451982856141388,0.00873405589810003,0.0035));
#1176=CARTESIAN_POINT('',(-0.0446610763118132,0.00885198030394913,0.0035));
#1177=CARTESIAN_POINT('',(-0.0457354949164643,0.00861613149225094,0.0035));
#1178=CARTESIAN_POINT('',(-0.0450065076803063,0.0052952012596928,0.0035));
#1179=CARTESIAN_POINT('',(-0.0442775204441482,0.00197427102713466,0.0035));
#1180=CARTESIAN_POINT('',(-0.0427157899029328,-9.84899265414878E-6,0.0035));
#1181=CARTESIAN_POINT('',(-0.0432031018394971,0.00221011983883286,0.0035));
#1182=CARTESIAN_POINT('',(-0.0437403111418226,0.00209219543298376,0.0035));
#1183=CARTESIAN_POINT('',(0.,0.,0.));
#1184=CARTESIAN_POINT('',(-0.0308486143814177,-0.00740122443385976,0.003));
#1185=CARTESIAN_POINT('',(-0.0308486143814177,-0.00740122443385976,0.0015));
#1186=CARTESIAN_POINT('',(-0.0274986143814177,-0.00740122443385976,0.0015));
#1187=CARTESIAN_POINT('',(-0.0308486143814177,-0.00740122443385976,0.));
#1188=CARTESIAN_POINT('',(-0.0274986143814177,-0.00740122443385976,0.));
#1189=CARTESIAN_POINT('',(-0.0308486143814177,-0.00740122443385976,0.003));
#1190=CARTESIAN_POINT('',(-0.0308486143814177,-0.00740122443385976,0.003));
#1191=CARTESIAN_POINT('',(-0.0289986143814176,-0.00740122443385976,0.003));
#1192=CARTESIAN_POINT('',(-0.0308486143814177,-0.00740122443385976,0.));
#1193=CARTESIAN_POINT('',(-0.0308486143814177,-0.00740122443385976,0.0015));
#1194=CARTESIAN_POINT('',(0.,0.,0.));
#1195=CARTESIAN_POINT('',(-0.0345559458262021,0.018213083825193,0.003));
#1196=CARTESIAN_POINT('',(-0.0230559458262021,0.018213083825193,0.003));
#1197=CARTESIAN_POINT('',(-0.0230559458262021,0.018213083825193,0.0015));
#1198=CARTESIAN_POINT('',(-0.0230559458262021,0.018213083825193,0.));
#1199=CARTESIAN_POINT('',(-0.0345559458262021,0.018213083825193,0.0015));
#1200=CARTESIAN_POINT('',(-0.0460559458262021,0.018213083825193,0.0015));
#1201=CARTESIAN_POINT('',(-0.0460559458262021,0.018213083825193,0.003));
#1202=CARTESIAN_POINT('',(-0.0460559458262021,0.018213083825193,0.));
#1203=CARTESIAN_POINT('',(-0.0345559458262021,0.018213083825193,0.));
#1204=CARTESIAN_POINT('',(-0.0230559458262021,0.0217130838251929,0.003));
#1205=CARTESIAN_POINT('',(-0.0230559458262021,0.0252130838251929,0.003));
#1206=CARTESIAN_POINT('',(-0.0230559458262021,0.0252130838251929,0.0015));
#1207=CARTESIAN_POINT('',(-0.0230559458262021,0.0252130838251929,0.));
#1208=CARTESIAN_POINT('',(-0.0230559458262021,0.018213083825193,0.0015));
#1209=CARTESIAN_POINT('',(-0.0230559458262021,0.0217130838251929,0.));
#1210=CARTESIAN_POINT('',(-0.0345559458262021,0.0252130838251929,0.003));
#1211=CARTESIAN_POINT('',(-0.0460559458262021,0.0252130838251929,0.003));
#1212=CARTESIAN_POINT('',(-0.0460559458262021,0.0252130838251929,0.0015));
#1213=CARTESIAN_POINT('',(-0.0460559458262021,0.0252130838251929,0.));
#1214=CARTESIAN_POINT('',(-0.0230559458262021,0.0252130838251929,0.0015));
#1215=CARTESIAN_POINT('',(-0.0345559458262021,0.0252130838251929,0.));
#1216=CARTESIAN_POINT('',(-0.0460559458262021,0.0217130838251929,0.003));
#1217=CARTESIAN_POINT('',(-0.0460559458262021,0.0217130838251929,0.0015));
#1218=CARTESIAN_POINT('',(-0.0460559458262021,0.0217130838251929,0.));
#1219=CARTESIAN_POINT('',(-0.0345559458262021,0.0217130838251929,0.003));
#1220=CARTESIAN_POINT('',(-0.0345559458262021,0.019713083825193,0.003));
#1221=CARTESIAN_POINT('',(-0.0445559458262021,0.019713083825193,0.003));
#1222=CARTESIAN_POINT('',(-0.0245559458262021,0.019713083825193,0.003));
#1223=CARTESIAN_POINT('',(-0.0245559458262021,0.0252130838251929,0.003));
#1224=CARTESIAN_POINT('',(-0.0245559458262021,0.0237130838251929,0.003));
#1225=CARTESIAN_POINT('',(-0.0460559458262021,0.0237130838251929,0.003));
#1226=CARTESIAN_POINT('',(-0.0445559458262021,0.0237130838251929,0.003));
#1227=CARTESIAN_POINT('',(-0.0445559458262021,0.0217130838251929,0.003));
#1228=CARTESIAN_POINT('',(-0.0345559458262021,0.0217130838251929,0.));
#1229=CARTESIAN_POINT('',(-0.0445559458262021,0.0217130838251929,0.0015));
#1230=CARTESIAN_POINT('',(-0.0445559458262021,0.0237130838251929,0.0015));
#1231=CARTESIAN_POINT('',(-0.0445559458262021,0.019713083825193,0.0015));
#1232=CARTESIAN_POINT('',(-0.0345559458262021,0.019713083825193,0.0015));
#1233=CARTESIAN_POINT('',(-0.0245559458262021,0.019713083825193,0.0015));
#1234=CARTESIAN_POINT('',(-0.0345559458262021,0.0237130838251929,0.0015));
#1235=CARTESIAN_POINT('',(-0.0245559458262021,0.0237130838251929,0.0015));
#1236=CARTESIAN_POINT('',(-0.0245559458262021,0.0217130838251929,0.0015));
#1237=CARTESIAN_POINT('',(0.,0.,0.));
#1238=CARTESIAN_POINT('',(0.,0.0172,0.003));
#1239=CARTESIAN_POINT('',(-0.0064,0.0172,0.003));
#1240=CARTESIAN_POINT('',(-0.0064,0.0172,0.00137087));
#1241=CARTESIAN_POINT('',(-0.0064,0.0172,0.));
#1242=CARTESIAN_POINT('',(0.0064,0.0172,0.00137087));
#1243=CARTESIAN_POINT('',(0.0064,0.0172,0.00137087));
#1244=CARTESIAN_POINT('',(0.0064,0.0172,0.003));
#1245=CARTESIAN_POINT('',(0.0064,0.0172,0.));
#1246=CARTESIAN_POINT('',(0.,0.0172,0.));
#1247=CARTESIAN_POINT('',(-0.0064,0.0118,0.003));
#1248=CARTESIAN_POINT('',(-0.0064,0.0064,0.003));
#1249=CARTESIAN_POINT('',(-0.0064,0.0064,0.00137087));
#1250=CARTESIAN_POINT('',(-0.0064,0.0064,0.));
#1251=CARTESIAN_POINT('',(-0.0064,0.0172,0.00137087));
#1252=CARTESIAN_POINT('',(-0.0064,0.0118,0.));
#1253=CARTESIAN_POINT('',(-0.0118,0.0064,0.003));
#1254=CARTESIAN_POINT('',(-0.0172,0.0064,0.003));
#1255=CARTESIAN_POINT('',(-0.0172,0.0064,0.00137087));
#1256=CARTESIAN_POINT('',(-0.0172,0.0064,0.));
#1257=CARTESIAN_POINT('',(-0.0064,0.0064,0.00137087));
#1258=CARTESIAN_POINT('',(-0.0118,0.0064,0.));
#1259=CARTESIAN_POINT('',(-0.0172,0.,0.003));
#1260=CARTESIAN_POINT('',(-0.0172,-0.0064,0.003));
#1261=CARTESIAN_POINT('',(-0.0172,-0.0064,0.00137087));
#1262=CARTESIAN_POINT('',(-0.0172,-0.0064,0.));
#1263=CARTESIAN_POINT('',(-0.0172,0.,0.00137087));
#1264=CARTESIAN_POINT('',(-0.0172,0.,0.));
#1265=CARTESIAN_POINT('',(-0.0118,-0.0064,0.003));
#1266=CARTESIAN_POINT('',(-0.0064,-0.0064,0.003));
#1267=CARTESIAN_POINT('',(-0.0064,-0.0064,0.00137087));
#1268=CARTESIAN_POINT('',(-0.0064,-0.0064,0.));
#1269=CARTESIAN_POINT('',(-0.0118,-0.0064,0.00137087));
#1270=CARTESIAN_POINT('',(-0.0118,-0.0064,0.));
#1271=CARTESIAN_POINT('',(-0.0064,-0.0118,0.003));
#1272=CARTESIAN_POINT('',(-0.0064,-0.0172,0.003));
#1273=CARTESIAN_POINT('',(-0.0064,-0.0172,0.00137087));
#1274=CARTESIAN_POINT('',(-0.0064,-0.0172,0.));
#1275=CARTESIAN_POINT('',(-0.0064,-0.0064,0.00137087));
#1276=CARTESIAN_POINT('',(-0.0064,-0.0118,0.));
#1277=CARTESIAN_POINT('',(0.,-0.0172,0.003));
#1278=CARTESIAN_POINT('',(0.0064,-0.0172,0.003));
#1279=CARTESIAN_POINT('',(0.0064,-0.0172,0.00137087));
#1280=CARTESIAN_POINT('',(0.0064,-0.0172,0.));
#1281=CARTESIAN_POINT('',(0.,-0.0172,0.00137087));
#1282=CARTESIAN_POINT('',(0.,-0.0172,0.));
#1283=CARTESIAN_POINT('',(0.0064,-0.0118,0.003));
#1284=CARTESIAN_POINT('',(0.0064,-0.0064,0.003));
#1285=CARTESIAN_POINT('',(0.0064,-0.0064,0.00137087));
#1286=CARTESIAN_POINT('',(0.0064,-0.0064,0.));
#1287=CARTESIAN_POINT('',(0.0064,-0.0118,0.00137087));
#1288=CARTESIAN_POINT('',(0.0064,-0.0118,0.));
#1289=CARTESIAN_POINT('',(0.0118,-0.0064,0.003));
#1290=CARTESIAN_POINT('',(0.0172,-0.0064,0.003));
#1291=CARTESIAN_POINT('',(0.0172,-0.0064,0.00137087));
#1292=CARTESIAN_POINT('',(0.0172,-0.0064,0.));
#1293=CARTESIAN_POINT('',(0.0118,-0.0064,0.00137087));
#1294=CARTESIAN_POINT('',(0.0118,-0.0064,0.));
#1295=CARTESIAN_POINT('',(0.0172,0.,0.003));
#1296=CARTESIAN_POINT('',(0.0172,0.0064,0.003));
#1297=CARTESIAN_POINT('',(0.0172,0.0064,0.00137087));
#1298=CARTESIAN_POINT('',(0.0172,0.0064,0.));
#1299=CARTESIAN_POINT('',(0.0172,-0.0064,0.00137087));
#1300=CARTESIAN_POINT('',(0.0172,0.,0.));
#1301=CARTESIAN_POINT('',(0.0118,0.0064,0.003));
#1302=CARTESIAN_POINT('',(0.0064,0.0064,0.003));
#1303=CARTESIAN_POINT('',(0.0064,0.0064,0.00137087));
#1304=CARTESIAN_POINT('',(0.0064,0.0064,0.));
#1305=CARTESIAN_POINT('',(0.0172,0.0064,0.00137087));
#1306=CARTESIAN_POINT('',(0.0118,0.0064,0.));
#1307=CARTESIAN_POINT('',(0.0064,0.0118,0.003));
#1308=CARTESIAN_POINT('',(0.0064,0.0118,0.00137087));
#1309=CARTESIAN_POINT('',(0.0064,0.0118,0.));
#1310=CARTESIAN_POINT('',(0.,0.,0.003));
#1311=CARTESIAN_POINT('',(-0.00477087,0.0064,0.003));
#1312=CARTESIAN_POINT('',(-0.00477087,0.01557087,0.003));
#1313=CARTESIAN_POINT('',(-0.00477087,0.00477087,0.003));
#1314=CARTESIAN_POINT('',(-0.0172,0.00477087,0.003));
#1315=CARTESIAN_POINT('',(-0.01557087,0.00477087,0.003));
#1316=CARTESIAN_POINT('',(-0.01557087,0.,0.003));
#1317=CARTESIAN_POINT('',(-0.01557087,-0.00477087,0.003));
#1318=CARTESIAN_POINT('',(0.,-0.00477087,0.003));
#1319=CARTESIAN_POINT('',(-0.00477087,-0.00477087,0.003));
#1320=CARTESIAN_POINT('',(-0.00477087,-0.0172,0.003));
#1321=CARTESIAN_POINT('',(-0.00477087,-0.01557087,0.003));
#1322=CARTESIAN_POINT('',(0.,-0.01557087,0.003));
#1323=CARTESIAN_POINT('',(0.00477087,-0.01557087,0.003));
#1324=CARTESIAN_POINT('',(0.00477087,0.,0.003));
#1325=CARTESIAN_POINT('',(0.00477087,-0.00477087,0.003));
#1326=CARTESIAN_POINT('',(0.,-0.00477087,0.003));
#1327=CARTESIAN_POINT('',(0.01557087,-0.00477087,0.003));
#1328=CARTESIAN_POINT('',(0.01557087,0.0064,0.003));
#1329=CARTESIAN_POINT('',(0.01557087,0.00477087,0.003));
#1330=CARTESIAN_POINT('',(0.0064,0.00477087,0.003));
#1331=CARTESIAN_POINT('',(0.00477087,0.00477087,0.003));
#1332=CARTESIAN_POINT('',(0.00477087,0.,0.003));
#1333=CARTESIAN_POINT('',(0.00477087,0.01557087,0.003));
#1334=CARTESIAN_POINT('',(-0.0064,0.01557087,0.003));
#1335=CARTESIAN_POINT('',(0.,0.,0.));
#1336=CARTESIAN_POINT('',(-0.00477087,0.,0.00137087));
#1337=CARTESIAN_POINT('',(-0.00477087,0.00477087,0.00137087));
#1338=CARTESIAN_POINT('',(-0.00477087,0.01557087,0.00137087));
#1339=CARTESIAN_POINT('',(0.,0.01557087,0.00137087));
#1340=CARTESIAN_POINT('',(0.00477087,0.01557087,0.00137087));
#1341=CARTESIAN_POINT('',(0.,0.00477087,0.00137087));
#1342=CARTESIAN_POINT('',(-0.01557087,0.00477087,0.00137087));
#1343=CARTESIAN_POINT('',(0.00477087,0.0118,0.00137087));
#1344=CARTESIAN_POINT('',(0.00477087,0.00477087,0.00137087));
#1345=CARTESIAN_POINT('',(-0.01557087,0.,0.00137087));
#1346=CARTESIAN_POINT('',(-0.01557087,-0.00477087,0.00137087));
#1347=CARTESIAN_POINT('',(0.,0.00477087,0.00137087));
#1348=CARTESIAN_POINT('',(0.01557087,0.00477087,0.00137087));
#1349=CARTESIAN_POINT('',(-0.0118,-0.00477087,0.00137087));
#1350=CARTESIAN_POINT('',(-0.00477087,-0.00477087,0.00137087));
#1351=CARTESIAN_POINT('',(0.01557087,0.,0.00137087));
#1352=CARTESIAN_POINT('',(0.01557087,-0.00477087,0.00137087));
#1353=CARTESIAN_POINT('',(-0.00477087,0.,0.00137087));
#1354=CARTESIAN_POINT('',(-0.00477087,-0.01557087,0.00137087));
#1355=CARTESIAN_POINT('',(0.0118,-0.00477087,0.00137087));
#1356=CARTESIAN_POINT('',(0.00477087,-0.00477087,0.00137087));
#1357=CARTESIAN_POINT('',(0.,-0.01557087,0.00137087));
#1358=CARTESIAN_POINT('',(0.00477087,-0.01557087,0.00137087));
#1359=CARTESIAN_POINT('',(0.00477087,-0.0118,0.00137087));
#1360=MECHANICAL_DESIGN_GEOMETRIC_PRESENTATION_REPRESENTATION('',(#775),
#1364);
#1361=MECHANICAL_DESIGN_GEOMETRIC_PRESENTATION_REPRESENTATION('',(#776),
#1365);
#1362=MECHANICAL_DESIGN_GEOMETRIC_PRESENTATION_REPRESENTATION('',(#777),
#1366);
#1363=MECHANICAL_DESIGN_GEOMETRIC_PRESENTATION_REPRESENTATION('',(#778),
#1367);
#1364=(
GEOMETRIC_REPRESENTATION_CONTEXT(3)
GLOBAL_UNCERTAINTY_ASSIGNED_CONTEXT((#1368))
GLOBAL_UNIT_ASSIGNED_CONTEXT((#1380,#1376,#1372))
REPRESENTATION_CONTEXT('Part 2','TOP_LEVEL_ASSEMBLY_PART')
);
#1365=(
GEOMETRIC_REPRESENTATION_CONTEXT(3)
GLOBAL_UNCERTAINTY_ASSIGNED_CONTEXT((#1369))
GLOBAL_UNIT_ASSIGNED_CONTEXT((#1381,#1377,#1373))
REPRESENTATION_CONTEXT('Part 3','TOP_LEVEL_ASSEMBLY_PART')
);
#1366=(
GEOMETRIC_REPRESENTATION_CONTEXT(3)
GLOBAL_UNCERTAINTY_ASSIGNED_CONTEXT((#1370))
GLOBAL_UNIT_ASSIGNED_CONTEXT((#1382,#1378,#1374))
REPRESENTATION_CONTEXT('Part 4','TOP_LEVEL_ASSEMBLY_PART')
);
#1367=(
GEOMETRIC_REPRESENTATION_CONTEXT(3)
GLOBAL_UNCERTAINTY_ASSIGNED_CONTEXT((#1371))
GLOBAL_UNIT_ASSIGNED_CONTEXT((#1383,#1379,#1375))
REPRESENTATION_CONTEXT('Part 1','TOP_LEVEL_ASSEMBLY_PART')
);
#1368=UNCERTAINTY_MEASURE_WITH_UNIT(LENGTH_MEASURE(1.E-8),#1380,
'DISTANCE_ACCURACY_VALUE','Maximum Tolerance applied to model');
#1369=UNCERTAINTY_MEASURE_WITH_UNIT(LENGTH_MEASURE(1.E-8),#1381,
'DISTANCE_ACCURACY_VALUE','Maximum Tolerance applied to model');
#1370=UNCERTAINTY_MEASURE_WITH_UNIT(LENGTH_MEASURE(1.E-8),#1382,
'DISTANCE_ACCURACY_VALUE','Maximum Tolerance applied to model');
#1371=UNCERTAINTY_MEASURE_WITH_UNIT(LENGTH_MEASURE(1.E-8),#1383,
'DISTANCE_ACCURACY_VALUE','Maximum Tolerance applied to model');
#1372=(
NAMED_UNIT(*)
SI_UNIT($,.STERADIAN.)
SOLID_ANGLE_UNIT()
);
#1373=(
NAMED_UNIT(*)
SI_UNIT($,.STERADIAN.)
SOLID_ANGLE_UNIT()
);
#1374=(
NAMED_UNIT(*)
SI_UNIT($,.STERADIAN.)
SOLID_ANGLE_UNIT()
);
#1375=(
NAMED_UNIT(*)
SI_UNIT($,.STERADIAN.)
SOLID_ANGLE_UNIT()
);
#1376=(
NAMED_UNIT(*)
PLANE_ANGLE_UNIT()
SI_UNIT($,.RADIAN.)
);
#1377=(
NAMED_UNIT(*)
PLANE_ANGLE_UNIT()
SI_UNIT($,.RADIAN.)
);
#1378=(
NAMED_UNIT(*)
PLANE_ANGLE_UNIT()
SI_UNIT($,.RADIAN.)
);
#1379=(
NAMED_UNIT(*)
PLANE_ANGLE_UNIT()
SI_UNIT($,.RADIAN.)
);
#1380=(
LENGTH_UNIT()
NAMED_UNIT(*)
SI_UNIT($,.METRE.)
);
#1381=(
LENGTH_UNIT()
NAMED_UNIT(*)
SI_UNIT($,.METRE.)
);
#1382=(
LENGTH_UNIT()
NAMED_UNIT(*)
SI_UNIT($,.METRE.)
);
#1383=(
LENGTH_UNIT()
NAMED_UNIT(*)
SI_UNIT($,.METRE.)
);
#1384=PRODUCT_DEFINITION_SHAPE('','',#1388);
#1385=PRODUCT_DEFINITION_SHAPE('','',#1389);
#1386=PRODUCT_DEFINITION_SHAPE('','',#1390);
#1387=PRODUCT_DEFINITION_SHAPE('','',#1391);
#1388=PRODUCT_DEFINITION('','',#1396,#1392);
#1389=PRODUCT_DEFINITION('','',#1397,#1393);
#1390=PRODUCT_DEFINITION('','',#1398,#1394);
#1391=PRODUCT_DEFINITION('','',#1399,#1395);
#1392=PRODUCT_DEFINITION_CONTEXT('',#1420,'design');
#1393=PRODUCT_DEFINITION_CONTEXT('',#1421,'design');
#1394=PRODUCT_DEFINITION_CONTEXT('',#1422,'design');
#1395=PRODUCT_DEFINITION_CONTEXT('',#1423,'design');
#1396=PRODUCT_DEFINITION_FORMATION_WITH_SPECIFIED_SOURCE('','',#1404,
 .NOT_KNOWN.);
#1397=PRODUCT_DEFINITION_FORMATION_WITH_SPECIFIED_SOURCE('','',#1405,
 .NOT_KNOWN.);
#1398=PRODUCT_DEFINITION_FORMATION_WITH_SPECIFIED_SOURCE('','',#1406,
 .NOT_KNOWN.);
#1399=PRODUCT_DEFINITION_FORMATION_WITH_SPECIFIED_SOURCE('','',#1407,
 .NOT_KNOWN.);
#1400=PRODUCT_RELATED_PRODUCT_CATEGORY('','',(#1404));
#1401=PRODUCT_RELATED_PRODUCT_CATEGORY('','',(#1405));
#1402=PRODUCT_RELATED_PRODUCT_CATEGORY('','',(#1406));
#1403=PRODUCT_RELATED_PRODUCT_CATEGORY('','',(#1407));
#1404=PRODUCT('Part 2','Part 2','Part 2',(#1412));
#1405=PRODUCT('Part 3','Part 3','Part 3',(#1413));
#1406=PRODUCT('Part 4','Part 4','Part 4',(#1414));
#1407=PRODUCT('Part 1','Part 1','Part 1',(#1415));
#1408=PRODUCT_CATEGORY('','');
#1409=PRODUCT_CATEGORY('','');
#1410=PRODUCT_CATEGORY('','');
#1411=PRODUCT_CATEGORY('','');
#1412=PRODUCT_CONTEXT('',#1420,'mechanical');
#1413=PRODUCT_CONTEXT('',#1421,'mechanical');
#1414=PRODUCT_CONTEXT('',#1422,'mechanical');
#1415=PRODUCT_CONTEXT('',#1423,'mechanical');
#1416=APPLICATION_PROTOCOL_DEFINITION('international standard',
'ap242_managed_model_based_3d_engineering',2020,#1420);
#1417=APPLICATION_PROTOCOL_DEFINITION('international standard',
'ap242_managed_model_based_3d_engineering',2020,#1421);
#1418=APPLICATION_PROTOCOL_DEFINITION('international standard',
'ap242_managed_model_based_3d_engineering',2020,#1422);
#1419=APPLICATION_PROTOCOL_DEFINITION('international standard',
'ap242_managed_model_based_3d_engineering',2020,#1423);
#1420=APPLICATION_CONTEXT('managed model based 3d engineering');
#1421=APPLICATION_CONTEXT('managed model based 3d engineering');
#1422=APPLICATION_CONTEXT('managed model based 3d engineering');
#1423=APPLICATION_CONTEXT('managed model based 3d engineering');
ENDSEC;
END-ISO-10303-21;
